<svg xmlns="http://www.w3.org/2000/svg" width="360" height="332" fill="none"><g clip-path="url(#a)"><g clip-path="url(#b)"><circle cx="17.899" cy="18.148" r="17.599" stroke="#707076" stroke-width=".83"/><circle cx="53.927" cy="18.148" r="17.599" stroke="#707076" stroke-width=".83"/><circle cx="89.956" cy="18.148" r="17.599" stroke="#707076" stroke-width=".83"/><circle cx="125.984" cy="18.148" r="17.599" stroke="#707076" stroke-width=".83"/><circle cx="162.013" cy="18.148" r="17.599" stroke="#707076" stroke-width=".83"/><circle cx="198.042" cy="18.148" r="17.599" stroke="#707076" stroke-width=".83"/><circle cx="234.07" cy="18.148" r="17.599" stroke="#707076" stroke-width=".83"/><circle cx="270.099" cy="18.148" r="17.599" stroke="#707076" stroke-width=".83"/><circle cx="306.128" cy="18.148" r="17.599" stroke="#707076" stroke-width=".83"/><circle cx="342.156" cy="18.148" r="17.599" stroke="#707076" stroke-width=".83"/><circle cx="17.899" cy="54.176" r="17.599" stroke="#707076" stroke-width=".83"/><circle cx="53.927" cy="54.176" r="17.599" stroke="#707076" stroke-width=".83"/><circle cx="89.956" cy="54.176" r="17.599" stroke="#707076" stroke-width=".83"/><circle cx="125.984" cy="54.176" r="17.599" stroke="#707076" stroke-width=".83"/><circle cx="162.013" cy="54.176" r="17.599" stroke="#707076" stroke-width=".83"/><circle cx="198.042" cy="54.176" r="17.599" stroke="#707076" stroke-width=".83"/><circle cx="234.07" cy="54.176" r="17.599" stroke="#707076" stroke-width=".83"/><circle cx="270.099" cy="54.176" r="17.599" stroke="#707076" stroke-width=".83"/><circle cx="306.128" cy="54.176" r="17.599" stroke="#707076" stroke-width=".83"/><circle cx="342.156" cy="54.176" r="17.599" stroke="#707076" stroke-width=".83"/><circle cx="17.899" cy="90.206" r="17.599" stroke="#707076" stroke-width=".83"/><circle cx="53.927" cy="90.206" r="17.599" stroke="#707076" stroke-width=".83"/><circle cx="89.956" cy="90.206" r="17.599" stroke="#707076" stroke-width=".83"/><circle cx="125.985" cy="90.206" r="17.599" stroke="#707076" stroke-width=".83"/><circle cx="162.013" cy="90.206" r="17.599" stroke="#707076" stroke-width=".83"/><circle cx="198.042" cy="90.206" r="17.599" stroke="#707076" stroke-width=".83"/><circle cx="234.07" cy="90.206" r="17.599" stroke="#707076" stroke-width=".83"/><circle cx="270.099" cy="90.206" r="17.599" stroke="#707076" stroke-width=".83"/><circle cx="306.128" cy="90.206" r="17.599" stroke="#707076" stroke-width=".83"/><circle cx="342.156" cy="90.206" r="17.599" stroke="#707076" stroke-width=".83"/><circle cx="17.899" cy="126.234" r="17.599" stroke="#707076" stroke-width=".83"/><circle cx="53.927" cy="126.234" r="17.599" stroke="#707076" stroke-width=".83"/><circle cx="89.956" cy="126.234" r="17.599" stroke="#707076" stroke-width=".83"/><circle cx="125.985" cy="126.234" r="17.599" stroke="#707076" stroke-width=".83"/><circle cx="162.013" cy="126.234" r="17.599" stroke="#707076" stroke-width=".83"/><circle cx="198.042" cy="126.234" r="17.599" stroke="#707076" stroke-width=".83"/><circle cx="234.07" cy="126.234" r="17.599" stroke="#707076" stroke-width=".83"/><circle cx="270.099" cy="126.234" r="17.599" stroke="#707076" stroke-width=".83"/><circle cx="306.128" cy="126.234" r="17.599" stroke="#707076" stroke-width=".83"/><circle cx="342.156" cy="126.234" r="17.599" stroke="#707076" stroke-width=".83"/><circle cx="17.899" cy="162.263" r="17.599" stroke="#707076" stroke-width=".83"/><circle cx="53.927" cy="162.263" r="17.599" stroke="#707076" stroke-width=".83"/><circle cx="89.956" cy="162.263" r="17.599" stroke="#707076" stroke-width=".83"/><circle cx="125.985" cy="162.263" r="17.599" stroke="#707076" stroke-width=".83"/><circle cx="162.013" cy="162.263" r="17.599" stroke="#707076" stroke-width=".83"/><circle cx="198.042" cy="162.263" r="17.599" stroke="#707076" stroke-width=".83"/><circle cx="234.07" cy="162.263" r="17.599" stroke="#707076" stroke-width=".83"/><circle cx="270.099" cy="162.263" r="17.599" stroke="#707076" stroke-width=".83"/><circle cx="306.128" cy="162.263" r="17.599" stroke="#707076" stroke-width=".83"/><circle cx="342.156" cy="162.263" r="17.599" stroke="#707076" stroke-width=".83"/><circle cx="17.899" cy="198.291" r="17.599" stroke="#707076" stroke-width=".83"/><circle cx="53.927" cy="198.291" r="17.599" stroke="#707076" stroke-width=".83"/><circle cx="89.956" cy="198.291" r="17.599" stroke="#707076" stroke-width=".83"/><circle cx="125.985" cy="198.291" r="17.599" stroke="#707076" stroke-width=".83"/><circle cx="162.013" cy="198.291" r="17.599" stroke="#707076" stroke-width=".83"/><circle cx="198.042" cy="198.291" r="17.599" stroke="#707076" stroke-width=".83"/><circle cx="234.07" cy="198.291" r="17.599" stroke="#707076" stroke-width=".83"/><circle cx="270.099" cy="198.291" r="17.599" stroke="#707076" stroke-width=".83"/><circle cx="306.128" cy="198.291" r="17.599" stroke="#707076" stroke-width=".83"/><circle cx="342.156" cy="198.291" r="17.599" stroke="#707076" stroke-width=".83"/><circle cx="17.899" cy="234.32" r="17.599" stroke="#707076" stroke-width=".83"/><circle cx="53.927" cy="234.32" r="17.599" stroke="#707076" stroke-width=".83"/><circle cx="89.956" cy="234.32" r="17.599" stroke="#707076" stroke-width=".83"/><circle cx="125.985" cy="234.32" r="17.599" stroke="#707076" stroke-width=".83"/><circle cx="162.013" cy="234.32" r="17.599" stroke="#707076" stroke-width=".83"/><circle cx="198.042" cy="234.32" r="17.599" stroke="#707076" stroke-width=".83"/><circle cx="234.07" cy="234.32" r="17.599" stroke="#707076" stroke-width=".83"/><circle cx="270.099" cy="234.32" r="17.599" stroke="#707076" stroke-width=".83"/><circle cx="306.128" cy="234.32" r="17.599" stroke="#707076" stroke-width=".83"/><circle cx="342.156" cy="234.32" r="17.599" stroke="#707076" stroke-width=".83"/><circle cx="17.899" cy="270.348" r="17.599" stroke="#707076" stroke-width=".83"/><circle cx="53.927" cy="270.348" r="17.599" stroke="#707076" stroke-width=".83"/><circle cx="89.956" cy="270.348" r="17.599" stroke="#707076" stroke-width=".83"/><circle cx="125.985" cy="270.348" r="17.599" stroke="#707076" stroke-width=".83"/><circle cx="162.013" cy="270.348" r="17.599" stroke="#707076" stroke-width=".83"/><circle cx="198.042" cy="270.348" r="17.599" stroke="#707076" stroke-width=".83"/><circle cx="234.07" cy="270.348" r="17.599" stroke="#707076" stroke-width=".83"/><circle cx="270.099" cy="270.348" r="17.599" stroke="#707076" stroke-width=".83"/><circle cx="306.128" cy="270.348" r="17.599" stroke="#707076" stroke-width=".83"/><circle cx="342.156" cy="270.348" r="17.599" stroke="#707076" stroke-width=".83"/><circle cx="17.899" cy="306.377" r="17.599" stroke="#707076" stroke-width=".83"/><circle cx="53.927" cy="306.377" r="17.599" stroke="#707076" stroke-width=".83"/><circle cx="89.956" cy="306.377" r="17.599" stroke="#707076" stroke-width=".83"/><circle cx="125.984" cy="306.377" r="17.599" stroke="#707076" stroke-width=".83"/><circle cx="162.013" cy="306.377" r="17.599" stroke="#707076" stroke-width=".83"/><circle cx="198.042" cy="306.377" r="17.599" stroke="#707076" stroke-width=".83"/><circle cx="234.07" cy="306.377" r="17.599" stroke="#707076" stroke-width=".83"/><circle cx="270.099" cy="306.377" r="17.599" stroke="#707076" stroke-width=".83"/><circle cx="306.128" cy="306.377" r="17.599" stroke="#707076" stroke-width=".83"/><circle cx="342.156" cy="306.377" r="17.599" stroke="#707076" stroke-width=".83"/><path fill="#fff" d="M179.942 100.736a12.247 12.247 0 0 0 7.597 7.598 12.247 12.247 0 0 0-7.597 7.598 12.25 12.25 0 0 0-7.598-7.598 12.25 12.25 0 0 0 7.598-7.598ZM179.97 208.708a12.247 12.247 0 0 0 7.598 7.597 12.25 12.25 0 0 0-7.598 7.598 12.25 12.25 0 0 0-7.598-7.598 12.247 12.247 0 0 0 7.598-7.597ZM107.97 172.679a12.246 12.246 0 0 0 7.598 7.598 12.246 12.246 0 0 0-7.598 7.598 12.246 12.246 0 0 0-7.598-7.598 12.246 12.246 0 0 0 7.598-7.598ZM143.998 172.679a12.248 12.248 0 0 0 7.598 7.598 12.248 12.248 0 0 0-7.598 7.598 12.246 12.246 0 0 0-7.598-7.598 12.246 12.246 0 0 0 7.598-7.598ZM180.133 136.467a12.248 12.248 0 0 0 7.598 7.598 12.246 12.246 0 0 0-7.598 7.598 12.246 12.246 0 0 0-7.598-7.598 12.248 12.248 0 0 0 7.598-7.598ZM216.133 172.467a12.248 12.248 0 0 0 7.598 7.598 12.246 12.246 0 0 0-7.598 7.598 12.246 12.246 0 0 0-7.598-7.598 12.248 12.248 0 0 0 7.598-7.598ZM252.057 172.467a12.248 12.248 0 0 0 7.598 7.598 12.246 12.246 0 0 0-7.598 7.598 12.248 12.248 0 0 0-7.598-7.598 12.25 12.25 0 0 0 7.598-7.598ZM180.085 244.622a12.246 12.246 0 0 0 7.598 7.598 12.246 12.246 0 0 0-7.598 7.598 12.246 12.246 0 0 0-7.598-7.598 12.246 12.246 0 0 0 7.598-7.598Z"/><path fill="#E7BC25" d="M179.804 164a27.091 27.091 0 0 0 16.805 16.804 27.093 27.093 0 0 0-16.805 16.805A27.091 27.091 0 0 0 163 180.804 27.09 27.09 0 0 0 179.804 164Z"/></g></g><defs><clipPath id="a"><path fill="#fff" d="M0 0h360v332H0z"/></clipPath><clipPath id="b"><path fill="#fff" d="M0 0h360.265v367.667H0z"/></clipPath></defs></svg>