<svg width="109" height="28" viewBox="0 0 109 28" fill="none" xmlns="http://www.w3.org/2000/svg">
<g clip-path="url(#clip0_741_8733)">
<path d="M14.0056 6.46172H16.6648V22.1524H14.0056V19.3211C12.6761 21.2893 10.5126 22.52 7.88443 22.52C3.36917 22.5224 0 18.9844 0 14.3083C0 9.63211 3.36917 6.0918 7.88443 6.0918C10.5126 6.0918 12.6761 7.32249 14.0056 9.29064V6.45934V6.46172ZM8.37765 19.9685C11.5919 19.9685 14.0056 17.5379 14.0056 14.3083C14.0056 11.0786 11.5943 8.64803 8.37765 8.64803C5.16098 8.64803 2.72107 11.0786 2.72107 14.3083C2.72107 17.5379 5.13238 19.9685 8.37765 19.9685Z" fill="#14111D"/>
<path d="M29.9673 6.0918C34.4802 6.0918 37.8827 9.62974 37.8827 14.3059C37.8827 18.982 34.4826 22.52 29.9673 22.52C27.3392 22.52 25.1757 21.2893 23.8461 19.3211V27.9976H21.187V6.46172H23.8461V9.29302C25.1757 7.32486 27.3392 6.09417 29.9673 6.09417V6.0918ZM29.4717 19.9685C32.717 19.9685 35.1283 17.5379 35.1283 14.3083C35.1283 11.0786 32.717 8.64803 29.4717 8.64803C26.2265 8.64803 23.8461 11.0786 23.8461 14.3083C23.8461 17.5379 26.2574 19.9685 29.4717 19.9685Z" fill="#14111D"/>
<path d="M60.6782 22.1524V0H63.3373V22.1524H60.6782Z" fill="#14111D"/>
<path d="M67.8335 22.1524V0H70.4926V22.1524H67.8335Z" fill="#14111D"/>
<path d="M102.6 6.0918C106.434 6.0918 109 8.61483 109 12.461V22.1524H106.341V13.291C106.341 10.4905 104.547 8.64566 101.735 8.64566C98.9236 8.64566 96.9125 10.5237 96.9125 13.3526V22.1524H94.2534V6.46172H96.9125V8.86144C98.1492 7.07587 100.127 6.0918 102.6 6.0918Z" fill="#14111D"/>
<path d="M82.3634 6.03711C77.7886 6.03711 74.0811 9.72681 74.0811 14.2797C74.0811 18.8325 77.7886 22.5222 82.3634 22.5222C86.9382 22.5222 90.6457 18.8325 90.6457 14.2797C90.6457 9.72681 86.9382 6.03711 82.3634 6.03711ZM82.3634 19.9138C79.2373 19.9138 76.702 17.3908 76.702 14.2797C76.702 11.1685 79.2373 8.64551 82.3634 8.64551C85.4895 8.64551 88.0247 11.1685 88.0247 14.2797C88.0247 17.3908 85.4895 19.9138 82.3634 19.9138Z" fill="#14111D"/>
<path d="M57.0639 13.9101C56.8757 9.68211 53.4875 6.27933 49.251 6.04932L49.5369 6.6943C51.0047 10.0022 53.7162 12.5822 57.0639 13.9101Z" fill="#14111D"/>
<path d="M48.0451 6.6943L48.331 6.04932C44.0921 6.27933 40.7039 9.67974 40.5181 13.9101C43.8658 12.5822 46.5773 10.0022 48.0451 6.6943Z" fill="#14111D"/>
<path d="M49.5345 21.8657L49.2485 22.5107C53.4874 22.2807 56.8756 18.8803 57.0615 14.6499C53.7138 15.9778 51.0022 18.5578 49.5345 21.8657Z" fill="#14111D"/>
<path d="M48.0451 21.8657C46.5773 18.5578 43.8658 15.9778 40.5181 14.6499C40.7063 18.8779 44.0945 22.2807 48.331 22.5107L48.0451 21.8657Z" fill="#14111D"/>
</g>
<defs>
<clipPath id="clip0_741_8733">
<rect width="109" height="28" fill="white"/>
</clipPath>
</defs>
</svg>
