<svg xmlns="http://www.w3.org/2000/svg" width="458" height="119" fill="none"><g fill="#14111D" clip-path="url(#a)"><path d="M58.78 27.25h11.16v66.17H58.78V81.48c-5.58 8.3-14.66 13.49-25.69 13.49C14.14 94.98 0 80.06 0 60.34c0-19.72 14.14-34.65 33.09-34.65 11.03 0 20.11 5.19 25.69 13.49V27.24v.01ZM35.16 84.21c13.49 0 23.62-10.25 23.62-23.87 0-13.62-10.12-23.87-23.62-23.87-13.5 0-23.74 10.25-23.74 23.87 0 13.62 10.12 23.87 23.74 23.87ZM125.77 25.69c18.94 0 33.22 14.92 33.22 34.64s-14.27 34.64-33.22 34.64c-11.03 0-20.11-5.19-25.69-13.49v36.59H88.92V27.25h11.16v11.94c5.58-8.3 14.66-13.49 25.69-13.49v-.01Zm-2.08 58.52c13.62 0 23.74-10.25 23.74-23.87 0-13.62-10.12-23.87-23.74-23.87s-23.61 10.25-23.61 23.87c0 13.62 10.12 23.87 23.61 23.87ZM254.66 93.42V0h11.16v93.42h-11.16ZM284.69 93.42V0h11.16v93.42h-11.16ZM430.6 25.69c16.09 0 26.86 10.64 26.86 26.86v40.87H446.3V56.05c0-11.81-7.53-19.59-19.33-19.59-11.8 0-20.24 7.92-20.24 19.85v37.11h-11.16V27.25h11.16v10.12c5.19-7.53 13.49-11.68 23.87-11.68ZM345.67 25.46c-19.2 0-34.76 15.56-34.76 34.76 0 19.2 15.56 34.76 34.76 34.76 19.2 0 34.76-15.56 34.76-34.76 0-19.2-15.56-34.76-34.76-34.76Zm0 58.52c-13.12 0-23.76-10.64-23.76-23.76 0-13.12 10.64-23.76 23.76-23.76 13.12 0 23.76 10.64 23.76 23.76 0 13.12-10.64 23.76-23.76 23.76ZM239.49 58.66c-.79-17.83-15.01-32.18-32.79-33.15l1.2 2.72a57.98 57.98 0 0 0 31.59 30.43ZM201.64 28.23l1.2-2.72c-17.79.97-32.01 15.31-32.79 33.15a57.98 57.98 0 0 0 31.59-30.43ZM207.89 92.21l-1.2 2.72c17.79-.97 32.01-15.31 32.79-33.15a57.98 57.98 0 0 0-31.59 30.43ZM201.64 92.21a57.98 57.98 0 0 0-31.59-30.43c.79 17.83 15.01 32.18 32.79 33.15l-1.2-2.72Z"/></g><defs><clipPath id="a"><path fill="#fff" d="M0 0h457.46v118.08H0z"/></clipPath></defs></svg>