<svg width="360" height="332" viewBox="0 0 360 332" fill="none" xmlns="http://www.w3.org/2000/svg">
<g clip-path="url(#clip0_363_9496)">
<g clip-path="url(#clip1_363_9496)">
<circle cx="17.8991" cy="18.1481" r="17.5991" stroke="#707076" stroke-width="0.830338"/>
<circle cx="53.9274" cy="18.1481" r="17.5991" stroke="#707076" stroke-width="0.830338"/>
<circle cx="89.9557" cy="18.1481" r="17.5991" stroke="#707076" stroke-width="0.830338"/>
<circle cx="125.984" cy="18.1481" r="17.5991" stroke="#707076" stroke-width="0.830338"/>
<circle cx="162.013" cy="18.1481" r="17.5991" stroke="#707076" stroke-width="0.830338"/>
<circle cx="198.042" cy="18.1481" r="17.5991" stroke="#707076" stroke-width="0.830338"/>
<circle cx="234.07" cy="18.1481" r="17.5991" stroke="#707076" stroke-width="0.830338"/>
<circle cx="270.099" cy="18.1481" r="17.5991" stroke="#707076" stroke-width="0.830338"/>
<circle cx="306.128" cy="18.1481" r="17.5991" stroke="#707076" stroke-width="0.830338"/>
<circle cx="342.156" cy="18.1481" r="17.5991" stroke="#707076" stroke-width="0.830338"/>
<circle cx="17.8991" cy="54.1764" r="17.5991" stroke="#707076" stroke-width="0.830338"/>
<circle cx="53.9274" cy="54.1764" r="17.5991" stroke="#707076" stroke-width="0.830338"/>
<circle cx="89.9557" cy="54.1764" r="17.5991" stroke="#707076" stroke-width="0.830338"/>
<circle cx="125.984" cy="54.1764" r="17.5991" stroke="#707076" stroke-width="0.830338"/>
<circle cx="162.013" cy="54.1764" r="17.5991" stroke="#707076" stroke-width="0.830338"/>
<circle cx="198.042" cy="54.1764" r="17.5991" stroke="#707076" stroke-width="0.830338"/>
<circle cx="234.07" cy="54.1764" r="17.5991" stroke="#707076" stroke-width="0.830338"/>
<circle cx="270.099" cy="54.1764" r="17.5991" stroke="#707076" stroke-width="0.830338"/>
<circle cx="306.128" cy="54.1764" r="17.5991" stroke="#707076" stroke-width="0.830338"/>
<circle cx="342.156" cy="54.1764" r="17.5991" stroke="#707076" stroke-width="0.830338"/>
<circle cx="17.8991" cy="90.2057" r="17.5991" stroke="#707076" stroke-width="0.830338"/>
<circle cx="53.9274" cy="90.2057" r="17.5991" stroke="#707076" stroke-width="0.830338"/>
<circle cx="89.9557" cy="90.2057" r="17.5991" stroke="#707076" stroke-width="0.830338"/>
<circle cx="125.985" cy="90.2057" r="17.5991" stroke="#707076" stroke-width="0.830338"/>
<circle cx="162.013" cy="90.2057" r="17.5991" stroke="#707076" stroke-width="0.830338"/>
<circle cx="198.042" cy="90.2057" r="17.5991" stroke="#707076" stroke-width="0.830338"/>
<circle cx="234.07" cy="90.2057" r="17.5991" stroke="#707076" stroke-width="0.830338"/>
<circle cx="270.099" cy="90.2057" r="17.5991" stroke="#707076" stroke-width="0.830338"/>
<circle cx="306.128" cy="90.2057" r="17.5991" stroke="#707076" stroke-width="0.830338"/>
<circle cx="342.156" cy="90.2057" r="17.5991" stroke="#707076" stroke-width="0.830338"/>
<circle cx="17.8991" cy="126.234" r="17.5991" stroke="#707076" stroke-width="0.830338"/>
<circle cx="53.9274" cy="126.234" r="17.5991" stroke="#707076" stroke-width="0.830338"/>
<circle cx="89.9557" cy="126.234" r="17.5991" stroke="#707076" stroke-width="0.830338"/>
<circle cx="125.985" cy="126.234" r="17.5991" stroke="#707076" stroke-width="0.830338"/>
<circle cx="162.013" cy="126.234" r="17.5991" stroke="#707076" stroke-width="0.830338"/>
<circle cx="198.042" cy="126.234" r="17.5991" stroke="#707076" stroke-width="0.830338"/>
<circle cx="234.07" cy="126.234" r="17.5991" stroke="#707076" stroke-width="0.830338"/>
<circle cx="270.099" cy="126.234" r="17.5991" stroke="#707076" stroke-width="0.830338"/>
<circle cx="306.128" cy="126.234" r="17.5991" stroke="#707076" stroke-width="0.830338"/>
<circle cx="342.156" cy="126.234" r="17.5991" stroke="#707076" stroke-width="0.830338"/>
<circle cx="17.8991" cy="162.263" r="17.5991" stroke="#707076" stroke-width="0.830338"/>
<circle cx="53.9274" cy="162.263" r="17.5991" stroke="#707076" stroke-width="0.830338"/>
<circle cx="89.9557" cy="162.263" r="17.5991" stroke="#707076" stroke-width="0.830338"/>
<circle cx="125.985" cy="162.263" r="17.5991" stroke="#707076" stroke-width="0.830338"/>
<circle cx="162.013" cy="162.263" r="17.5991" stroke="#707076" stroke-width="0.830338"/>
<circle cx="198.042" cy="162.263" r="17.5991" stroke="#707076" stroke-width="0.830338"/>
<circle cx="234.07" cy="162.263" r="17.5991" stroke="#707076" stroke-width="0.830338"/>
<circle cx="270.099" cy="162.263" r="17.5991" stroke="#707076" stroke-width="0.830338"/>
<circle cx="306.128" cy="162.263" r="17.5991" stroke="#707076" stroke-width="0.830338"/>
<circle cx="342.156" cy="162.263" r="17.5991" stroke="#707076" stroke-width="0.830338"/>
<circle cx="17.8991" cy="198.291" r="17.5991" stroke="#707076" stroke-width="0.830338"/>
<circle cx="53.9274" cy="198.291" r="17.5991" stroke="#707076" stroke-width="0.830338"/>
<circle cx="89.9557" cy="198.291" r="17.5991" stroke="#707076" stroke-width="0.830338"/>
<circle cx="125.985" cy="198.291" r="17.5991" stroke="#707076" stroke-width="0.830338"/>
<circle cx="162.013" cy="198.291" r="17.5991" stroke="#707076" stroke-width="0.830338"/>
<circle cx="198.042" cy="198.291" r="17.5991" stroke="#707076" stroke-width="0.830338"/>
<circle cx="234.07" cy="198.291" r="17.5991" stroke="#707076" stroke-width="0.830338"/>
<circle cx="270.099" cy="198.291" r="17.5991" stroke="#707076" stroke-width="0.830338"/>
<circle cx="306.128" cy="198.291" r="17.5991" stroke="#707076" stroke-width="0.830338"/>
<circle cx="342.156" cy="198.291" r="17.5991" stroke="#707076" stroke-width="0.830338"/>
<circle cx="17.8991" cy="234.32" r="17.5991" stroke="#707076" stroke-width="0.830338"/>
<circle cx="53.9274" cy="234.32" r="17.5991" stroke="#707076" stroke-width="0.830338"/>
<circle cx="89.9557" cy="234.32" r="17.5991" stroke="#707076" stroke-width="0.830338"/>
<circle cx="125.985" cy="234.32" r="17.5991" stroke="#707076" stroke-width="0.830338"/>
<circle cx="162.013" cy="234.32" r="17.5991" stroke="#707076" stroke-width="0.830338"/>
<circle cx="198.042" cy="234.32" r="17.5991" stroke="#707076" stroke-width="0.830338"/>
<circle cx="234.07" cy="234.32" r="17.5991" stroke="#707076" stroke-width="0.830338"/>
<circle cx="270.099" cy="234.32" r="17.5991" stroke="#707076" stroke-width="0.830338"/>
<circle cx="306.128" cy="234.32" r="17.5991" stroke="#707076" stroke-width="0.830338"/>
<circle cx="342.156" cy="234.32" r="17.5991" stroke="#707076" stroke-width="0.830338"/>
<circle cx="17.8991" cy="270.348" r="17.5991" stroke="#707076" stroke-width="0.830338"/>
<circle cx="53.9274" cy="270.348" r="17.5991" stroke="#707076" stroke-width="0.830338"/>
<circle cx="89.9557" cy="270.348" r="17.5991" stroke="#707076" stroke-width="0.830338"/>
<circle cx="125.985" cy="270.348" r="17.5991" stroke="#707076" stroke-width="0.830338"/>
<circle cx="162.013" cy="270.348" r="17.5991" stroke="#707076" stroke-width="0.830338"/>
<circle cx="198.042" cy="270.348" r="17.5991" stroke="#707076" stroke-width="0.830338"/>
<circle cx="234.07" cy="270.348" r="17.5991" stroke="#707076" stroke-width="0.830338"/>
<circle cx="270.099" cy="270.348" r="17.5991" stroke="#707076" stroke-width="0.830338"/>
<circle cx="306.128" cy="270.348" r="17.5991" stroke="#707076" stroke-width="0.830338"/>
<circle cx="342.156" cy="270.348" r="17.5991" stroke="#707076" stroke-width="0.830338"/>
<circle cx="17.8991" cy="306.377" r="17.5991" stroke="#707076" stroke-width="0.830338"/>
<circle cx="53.9274" cy="306.377" r="17.5991" stroke="#707076" stroke-width="0.830338"/>
<circle cx="89.9557" cy="306.377" r="17.5991" stroke="#707076" stroke-width="0.830338"/>
<circle cx="125.984" cy="306.377" r="17.5991" stroke="#707076" stroke-width="0.830338"/>
<circle cx="162.013" cy="306.377" r="17.5991" stroke="#707076" stroke-width="0.830338"/>
<circle cx="198.042" cy="306.377" r="17.5991" stroke="#707076" stroke-width="0.830338"/>
<circle cx="234.07" cy="306.377" r="17.5991" stroke="#707076" stroke-width="0.830338"/>
<circle cx="270.099" cy="306.377" r="17.5991" stroke="#707076" stroke-width="0.830338"/>
<circle cx="306.128" cy="306.377" r="17.5991" stroke="#707076" stroke-width="0.830338"/>
<circle cx="342.156" cy="306.377" r="17.5991" stroke="#707076" stroke-width="0.830338"/>
<path d="M35.9132 316.793C37.1406 320.361 39.9435 323.163 43.511 324.391C39.9435 325.618 37.1406 328.421 35.9132 331.989C34.6859 328.421 31.883 325.618 28.3154 324.391C31.883 323.163 34.6859 320.361 35.9132 316.793Z" fill="white"/>
<path d="M35.5919 280.577C36.8193 284.145 39.6222 286.948 43.1897 288.175C39.6222 289.402 36.8193 292.205 35.5919 295.773C34.3646 292.205 31.5617 289.402 27.9941 288.175C31.5617 286.948 34.3646 284.145 35.5919 280.577Z" fill="white"/>
<path d="M71.9416 280.577C73.1689 284.145 75.9718 286.948 79.5394 288.175C75.9718 289.402 73.1689 292.205 71.9416 295.773C70.7142 292.205 67.9113 289.402 64.3438 288.175C67.9113 286.948 70.7142 284.145 71.9416 280.577Z" fill="white"/>
<path d="M71.9416 244.736C73.1689 248.304 75.9718 251.107 79.5394 252.334C75.9718 253.561 73.1689 256.364 71.9416 259.932C70.7142 256.364 67.9113 253.561 64.3438 252.334C67.9113 251.107 70.7142 248.304 71.9416 244.736Z" fill="white"/>
<path d="M107.97 208.708C109.197 212.275 112 215.078 115.568 216.305C112 217.533 109.197 220.336 107.97 223.903C106.743 220.336 103.94 217.533 100.372 216.305C103.94 215.078 106.743 212.275 107.97 208.708Z" fill="white"/>
<path d="M107.97 172.679C109.197 176.247 112 179.05 115.568 180.277C112 181.504 109.197 184.307 107.97 187.875C106.743 184.307 103.94 181.504 100.372 180.277C103.94 179.05 106.743 176.247 107.97 172.679Z" fill="white"/>
<path d="M143.998 172.679C145.226 176.247 148.028 179.05 151.596 180.277C148.028 181.504 145.226 184.307 143.998 187.875C142.771 184.307 139.968 181.504 136.4 180.277C139.968 179.05 142.771 176.247 143.998 172.679Z" fill="white"/>
<path d="M288.113 136.467C289.341 140.035 292.144 142.838 295.711 144.065C292.144 145.292 289.341 148.095 288.113 151.663C286.886 148.095 284.083 145.292 280.516 144.065C284.083 142.838 286.886 140.035 288.113 136.467Z" fill="white"/>
<path d="M288.113 91.6887C290.827 99.5792 297.027 105.778 304.917 108.493C297.027 111.208 290.827 117.407 288.113 125.297C285.398 117.407 279.199 111.208 271.309 108.493C279.199 105.778 285.398 99.5792 288.113 91.6887Z" fill="#E7BC25"/>
<path d="M180.133 136.467C181.36 140.035 184.163 142.837 187.731 144.065C184.163 145.292 181.36 148.095 180.133 151.663C178.906 148.095 176.103 145.292 172.535 144.065C176.103 142.837 178.906 140.035 180.133 136.467Z" fill="white"/>
<path d="M180.133 136.467C181.36 140.035 184.163 142.837 187.731 144.065C184.163 145.292 181.36 148.095 180.133 151.663C178.906 148.095 176.103 145.292 172.535 144.065C176.103 142.837 178.906 140.035 180.133 136.467Z" fill="white"/>
<path d="M216.057 136.467C217.284 140.035 220.087 142.837 223.655 144.065C220.087 145.292 217.284 148.095 216.057 151.663C214.829 148.095 212.027 145.292 208.459 144.065C212.027 142.837 214.829 140.035 216.057 136.467Z" fill="white"/>
<path d="M252.085 100.622C253.312 104.19 256.115 106.993 259.683 108.22C256.115 109.447 253.312 112.25 252.085 115.818C250.858 112.25 248.055 109.447 244.487 108.22C248.055 106.993 250.858 104.19 252.085 100.622Z" fill="white"/>
<path d="M324.037 172.679C325.265 176.246 328.068 179.049 331.635 180.277C328.068 181.504 325.265 184.307 324.037 187.875C322.81 184.307 320.007 181.504 316.439 180.277C320.007 179.049 322.81 176.246 324.037 172.679Z" fill="white"/>
</g>
</g>
<defs>
<clipPath id="clip0_363_9496">
<rect width="360" height="332" fill="white"/>
</clipPath>
<clipPath id="clip1_363_9496">
<rect width="360.265" height="367.667" fill="white"/>
</clipPath>
</defs>
</svg>
