<svg xmlns="http://www.w3.org/2000/svg" width="12" height="12" fill="none"><g stroke="#3C3945" stroke-linecap="round" clip-path="url(#a)"><path d="M1.25 6c0-2.24 0-3.359.696-4.054C2.64 1.25 3.76 1.25 6 1.25c2.24 0 3.359 0 4.054.696.696.695.696 1.815.696 4.054 0 2.24 0 3.359-.696 4.054-.695.696-1.815.696-4.054.696-2.24 0-3.359 0-4.054-.696C1.25 9.36 1.25 8.24 1.25 6Z"/><path d="M6.121 8.5V6c0-.236 0-.354-.073-.427C5.975 5.5 5.857 5.5 5.62 5.5M5.996 4H6"/></g><defs><clipPath id="a"><path fill="#fff" d="M0 0h12v12H0z"/></clipPath></defs></svg>