<svg xmlns="http://www.w3.org/2000/svg" width="12" height="13" fill="none"><path stroke="#3C3945" stroke-linecap="round" d="M1.5 11 4 8.5M6.63 9.936C4.757 9.51 2.99 7.742 2.563 5.87c-.067-.297-.1-.445-.003-.685.097-.24.216-.315.454-.463.539-.337 1.121-.444 1.726-.39.849.075 1.273.113 1.485.002.211-.11.355-.368.643-.884l.364-.653c.24-.43.36-.646.643-.747.282-.101.452-.04.792.083a2.814 2.814 0 0 1 1.698 1.698c.123.34.184.51.083.792-.101.283-.317.403-.747.643l-.668.373c-.515.287-.773.43-.883.644-.11.214-.07.629.01 1.459.059.61-.043 1.197-.383 1.742-.15.238-.224.357-.464.454-.24.098-.388.064-.685-.003Z"/></svg>