<svg width="12" height="13" viewBox="0 0 12 13" fill="none" xmlns="http://www.w3.org/2000/svg">
<path d="M1.5 11L4 8.5" stroke="#CBCBCB" stroke-linecap="round"/>
<path d="M6.62923 9.93568C4.75758 9.51073 2.98922 7.74238 2.56427 5.87075C2.49699 5.57447 2.46336 5.42633 2.5608 5.18599C2.65825 4.94564 2.77728 4.87128 3.01535 4.72255C3.55353 4.38632 4.13627 4.27944 4.74104 4.33293C5.58965 4.40799 6.01396 4.44552 6.22562 4.33524C6.43728 4.22496 6.58112 3.96709 6.86879 3.45134L7.2332 2.79802C7.47326 2.36764 7.59329 2.15245 7.87564 2.05101C8.15798 1.94957 8.3279 2.011 8.66773 2.13386C9.46246 2.42118 10.0788 3.03752 10.3661 3.83224C10.489 4.17208 10.5504 4.342 10.449 4.62435C10.3476 4.9067 10.1324 5.02673 9.70197 5.26679L9.03358 5.63959C8.51882 5.92672 8.26143 6.07028 8.15119 6.28401C8.04095 6.49774 8.08099 6.91281 8.16107 7.74294C8.21996 8.35339 8.11846 8.94 7.77774 9.48483C7.62885 9.7229 7.55441 9.84193 7.31414 9.93928C7.07386 10.0366 6.92565 10.003 6.62923 9.93568Z" stroke="#CBCBCB" stroke-linecap="round"/>
</svg>
